<svg xmlns="http://www.w3.org/2000/svg" xmlns:xlink="http://www.w3.org/1999/xlink" id="collecticon-clipboard-list" width="16" height="16" version="1.1" viewBox="0 0 16 16"><rect width="16" height="16" fill="none"/><path d="M13,2C13,2,13,2,13,2l0,12c0,0,0,0,0,0H3c0,0,0,0,0,0V2c0,0,0,0,0,0H1v12c0,1.1,0.9,2,2,2h10c1.1,0,2-0.9,2-2V2H13z M4,5h2 v2H4V5z M7,5h5v2H7V5z M4,8h2v2H4V8z M7,8h5v2H7V8z M4,11h2v2H4V11z M7,11h5v2H7V11z M10,2V1c0-0.6-0.4-1-1-1H7C6.4,0,6,0.4,6,1v1H4 v2h8V2H10z M9,2H7V1h2V2z"/></svg>