<svg xmlns="http://www.w3.org/2000/svg" xmlns:xlink="http://www.w3.org/1999/xlink" id="Layer_1" width="512" height="512" x="0" y="0" enable-background="new 0 0 512 512" version="1.1" viewBox="0 0 512 512" xml:space="preserve"><g id="svgGrid"><line x1="32" x2="32" y1="0" y2="512" fill="none" stroke="#B35047"/><line x1="64" x2="64" y1="0" y2="512" fill="none" stroke="#B35047"/><line x1="96" x2="96" y1="0" y2="512" fill="none" stroke="#B35047"/><line x1="128" x2="128" y1="0" y2="512" fill="none" stroke="#B35047"/><line x1="160" x2="160" y1="0" y2="512" fill="none" stroke="#B35047"/><line x1="192" x2="192" y1="0" y2="512" fill="none" stroke="#B35047"/><line x1="224" x2="224" y1="0" y2="512" fill="none" stroke="#B35047"/><line x1="256" x2="256" y1="0" y2="512" fill="none" stroke="#B35047"/><line x1="288" x2="288" y1="0" y2="512" fill="none" stroke="#B35047"/><line x1="320" x2="320" y1="0" y2="512" fill="none" stroke="#B35047"/><line x1="352" x2="352" y1="0" y2="512" fill="none" stroke="#B35047"/><line x1="384" x2="384" y1="0" y2="512" fill="none" stroke="#B35047"/><line x1="416" x2="416" y1="0" y2="512" fill="none" stroke="#B35047"/><line x1="448" x2="448" y1="0" y2="512" fill="none" stroke="#B35047"/><line x1="480" x2="480" y1="0" y2="512" fill="none" stroke="#B35047"/><line x1="0" x2="512" y1="32" y2="32" fill="none" stroke="#B35047"/><line x1="0" x2="512" y1="64" y2="64" fill="none" stroke="#B35047"/><line x1="0" x2="512" y1="96" y2="96" fill="none" stroke="#B35047"/><line x1="0" x2="512" y1="128" y2="128" fill="none" stroke="#B35047"/><line x1="0" x2="512" y1="160" y2="160" fill="none" stroke="#B35047"/><line x1="0" x2="512" y1="192" y2="192" fill="none" stroke="#B35047"/><line x1="0" x2="512" y1="224" y2="224" fill="none" stroke="#B35047"/><line x1="0" x2="512" y1="256" y2="256" fill="none" stroke="#B35047"/><line x1="0" x2="512" y1="288" y2="288" fill="none" stroke="#B35047"/><line x1="0" x2="512" y1="320" y2="320" fill="none" stroke="#B35047"/><line x1="0" x2="512" y1="352" y2="352" fill="none" stroke="#B35047"/><line x1="0" x2="512" y1="384" y2="384" fill="none" stroke="#B35047"/><line x1="0" x2="512" y1="416" y2="416" fill="none" stroke="#B35047"/><line x1="0" x2="512" y1="448" y2="448" fill="none" stroke="#B35047"/><line x1="0" x2="512" y1="480" y2="480" fill="none" stroke="#B35047"/><rect width="512" height="512" fill="none" stroke="#B35047"/></g><path d="M502.666,434.783L385.061,317.178C404.672,285.442,416,248.047,416,208C416,93.125,322.875,0,208,0S0,93.125,0,208	s93.125,208,208,208c40.047,0,77.442-11.328,109.178-30.939l117.605,117.605c12.445,12.445,32.81,12.445,45.255,0l22.628-22.628	C515.111,467.593,515.111,447.228,502.666,434.783z M106.177,309.823C78.979,282.625,64,246.464,64,208	s14.979-74.625,42.177-101.823C133.375,78.979,169.536,64,208,64s74.625,14.979,101.823,42.177C337.021,133.375,352,169.536,352,208	s-14.979,74.625-42.177,101.823C282.625,337.021,246.464,352,208,352S133.375,337.021,106.177,309.823z"/></svg>